<svg xmlns="http://www.w3.org/2000/svg" viewBox="0 0 198.45 48.29"><defs><style>.cls-1{fill:#333;}.cls-2{fill:#4563cc;}</style></defs><title>BlueSky</title><g id="BlueSky_2" data-name="BlueSky 2"><g id="BlueSky_1" data-name="BlueSky 1"><path class="cls-1" d="M53.72,11.89h9c4.91,0,7.2.47,9.32,2.83a6.73,6.73,0,0,1,1.73,4.81,6.57,6.57,0,0,1-3.38,5.86,6.71,6.71,0,0,1,4.8,6.77,8.33,8.33,0,0,1-2.68,6.33C69.82,40.74,67.89,41,63,41H53.72ZM60.85,23h2.63c1,0,3.15,0,3.15-2.32s-2-2.21-3.15-2.21H60.85Zm0,11.53h3.5c.94,0,3.7,0,3.7-2.8,0-2.51-2.52-2.51-3.7-2.51h-3.5Z"/><path class="cls-1" d="M77.33,11.89h6.53V41H77.33Z"/><path class="cls-1" d="M107.24,41h-6.18V38.69H101c-1.34,2.79-4,3-5.67,3-1.33,0-4.48-.32-6.41-2.76-1.73-2.16-2-3.73-2-6.72V19.17h6.54V31.25c0,1.5,0,4.37,3.5,4.37,1.89,0,3.74-1,3.74-4.45v-12h6.53Z"/><path class="cls-1" d="M131.44,34.16A12.88,12.88,0,0,1,127,39.75a10.6,10.6,0,0,1-6.22,2,11.65,11.65,0,0,1-.12-23.3c6.65,0,11.53,5.28,11.53,11.93a9,9,0,0,1-.15,1.73H115.66a4.88,4.88,0,0,0,5.11,4.13,4.64,4.64,0,0,0,4-2.05Zm-5.79-6.49a5.15,5.15,0,0,0-9.91,0Z"/><path class="cls-1" d="M147.49,20.39c-.16-1-.39-2.83-2.68-2.83a2.42,2.42,0,0,0-2.55,2.28c0,1.73.78,2.09,6,4.45,5.43,2.44,6.8,5,6.8,8.34,0,4.25-2.44,8.93-10.15,8.93-8.42,0-10.5-5.51-10.5-9.25v-.94h7.39c0,3.38,2.09,4,3,4a2.81,2.81,0,0,0,2.84-2.79c0-1.93-1.22-2.4-5.71-4.29-2-.82-7.12-2.87-7.12-8.34s5.31-8.58,10.19-8.58a10.36,10.36,0,0,1,7.87,3.31,8.79,8.79,0,0,1,1.93,5.74Z"/><path class="cls-1" d="M157,11.89h6.53V27.08h.08l6.06-7.91h7.75l-8.22,9.6,8,12.24h-7.4L163.62,30.5h-.08V41H157Z"/><path class="cls-1" d="M198.45,19.17,187.51,48.29h-6.93L184,39.91l-8.1-20.74h7l4.37,12.67h.08l4.17-12.67Z"/><path class="cls-2" d="M0,26.39v6.06A8.54,8.54,0,0,1,8.53,41h6.06A14.61,14.61,0,0,0,0,26.39Z"/><path class="cls-2" d="M29.09,12a14.66,14.66,0,0,0-28.88.42,26.19,26.19,0,0,1,6.06.76,8.56,8.56,0,0,1,17,1.52v3.13h3a8.56,8.56,0,1,1,0,17.12H23.61a24.49,24.49,0,0,0-3.24-7.3A24.42,24.42,0,0,0,6.12,17.38,23.92,23.92,0,0,0,0,16.6H0v6.06A18.34,18.34,0,0,1,18.32,41h8a14.65,14.65,0,0,0,2.8-29Z"/></g></g></svg>
